<svg xmlns="http://www.w3.org/2000/svg" viewBox="0 0 1200 630">
  <defs>
    <linearGradient id="bg" x1="0" y1="0" x2="1" y2="1">
      <stop offset="0%" stop-color="#1e3a8a"/>
      <stop offset="100%" stop-color="#4338ca"/>
    </linearGradient>
    <linearGradient id="panel" x1="0" y1="0" x2="1" y2="1">
      <stop offset="0%" stop-color="#ffffff"/>
      <stop offset="100%" stop-color="#dbeafe"/>
    </linearGradient>
  </defs>

  <rect width="1200" height="630" fill="url(#bg)"/>
  <circle cx="1040" cy="120" r="180" fill="#93c5fd" opacity="0.16"/>
  <circle cx="140" cy="560" r="210" fill="#a5b4fc" opacity="0.14"/>

  <rect x="86" y="72" width="1028" height="486" rx="34" fill="#ffffff" opacity="0.08"/>

  <g transform="translate(120 145)">
    <rect x="0" y="0" width="270" height="270" rx="58" fill="url(#panel)"/>
    <path d="M42 122 135 51l93 71v106a15 15 0 0 1-15 15H57a15 15 0 0 1-15-15z" fill="#bfdbfe" opacity="0.24"/>
    <path d="M135 63 54 124h24v95h114v-95h24z" fill="#eff6ff"/>
    <text x="135" y="180" text-anchor="middle" fill="#1e3a8a" font-size="80" font-family="Arial, Helvetica, sans-serif" font-weight="700">₹</text>
    <rect x="86" y="199" width="98" height="10" rx="5" fill="#2563eb" opacity="0.74"/>
  </g>

  <text x="430" y="235" fill="#ffffff" font-size="62" font-family="Arial, Helvetica, sans-serif" font-weight="700">Rent Collection</text>
  <text x="430" y="304" fill="#bfdbfe" font-size="42" font-family="Arial, Helvetica, sans-serif" font-weight="700">Tenant Portal</text>
  <text x="430" y="374" fill="#dbeafe" font-size="31" font-family="Arial, Helvetica, sans-serif">Simple monthly rent + electricity payments</text>
  <text x="430" y="423" fill="#dbeafe" font-size="31" font-family="Arial, Helvetica, sans-serif">with mobile-friendly history and verification</text>

  <rect x="430" y="462" width="370" height="58" rx="29" fill="#1d4ed8"/>
  <text x="615" y="500" text-anchor="middle" fill="#ffffff" font-size="28" font-family="Arial, Helvetica, sans-serif" font-weight="700">Pay • Submit • Verify</text>
</svg>
